<svg width="16" height="16" viewBox="0 0 16 16" xmlns="http://www.w3.org/2000/svg"><title>Group</title><g fill="#8FA7B3" fill-rule="evenodd"><path d="M13.214 0H8.118a2.789 2.789 0 0 0-2.785 2.786v2.547H2.786A2.789 2.789 0 0 0 0 8.12v5.096A2.789 2.789 0 0 0 2.786 16h5.096a2.789 2.789 0 0 0 2.785-2.786v-2.547h2.547A2.789 2.789 0 0 0 16 7.88V2.786A2.789 2.789 0 0 0 13.214 0zM9.6 13.214a1.72 1.72 0 0 1-1.719 1.72H2.786a1.72 1.72 0 0 1-1.72-1.72V8.118c0-.947.771-1.718 1.72-1.718h2.547v1.481a2.789 2.789 0 0 0 2.786 2.786H9.6v2.547zm0-3.614H8.119A1.72 1.72 0 0 1 6.4 7.881V6.4h1.481c.948 0 1.719.77 1.719 1.719V9.6zm5.333-1.719A1.72 1.72 0 0 1 13.214 9.6h-2.547V8.119A2.789 2.789 0 0 0 7.88 5.333H6.4V2.786c0-.949.77-1.72 1.719-1.72h5.096c.948 0 1.718.771 1.718 1.72V7.88z" fill-rule="nonzero"/><path d="M14.933 7.881A1.72 1.72 0 0 1 13.214 9.6h-2.547V8.119A2.789 2.789 0 0 0 7.88 5.333H6.4V2.786c0-.949.77-1.72 1.719-1.72h5.096c.948 0 1.718.771 1.718 1.72V7.88z" fill-opacity=".1"/></g></svg>