<svg width="11" height="14" viewBox="0 0 11 14" xmlns="http://www.w3.org/2000/svg"><title>ic_lock</title><g fill="none" fill-rule="evenodd"><path d="M-3-1h16v16H-3z"/><path d="M10.732 6.642a.867.867 0 0 0-.649-.278h-.305v-1.91c0-1.22-.42-2.266-1.26-3.141C7.676.438 6.67 0 5.5 0 4.329 0 3.323.438 2.483 1.313c-.84.875-1.26 1.922-1.26 3.141v1.91H.916a.867.867 0 0 0-.65.278.94.94 0 0 0-.267.676v5.727c0 .266.09.491.267.677a.867.867 0 0 0 .65.278h9.166a.867.867 0 0 0 .65-.278.941.941 0 0 0 .267-.677V7.318a.94.94 0 0 0-.268-.676zm-2.788-.278H3.056v-1.91c0-.702.238-1.302.716-1.8.477-.496 1.053-.745 1.728-.745s1.25.249 1.728.746.716 1.097.716 1.8v1.909z" fill="#939DA6" fill-rule="nonzero"/></g></svg>