<svg width="162" height="103" viewBox="0 0 162 103" xmlns="http://www.w3.org/2000/svg"><title>Arrow</title><g fill="#4A4A4A" fill-rule="evenodd"><text transform="rotate(-12 85.407 117.254)" font-family="BradleyHandITCTT-Bold, Bradley Hand" font-size="20" font-style="expanded" font-weight="bold"><tspan x="24.057" y="61.682">Our Process is </tspan> <tspan x="9.087" y="86.682">Safe, Easy &amp; Fast!</tspan></text><path d="M60.925 35.305c-1.969-2.529-4.385-4.673-6.734-6.663-4.709-3.992-9.86-7.323-15.15-10.084-5.184-2.706-10.683-5.012-16.152-6.759-3.155-1.008-6.388-.99-9.6-.992-2.836-.002-5.656-.169-8.397 1.083-1.263.577-1.264-1.505 0-2.065 2.742-1.217 5.557-1.399 8.397-1.474 8.786-.233 17.805 3.807 25.617 7.857 5.725 2.969 11.134 6.655 16.076 11.213 2.46 2.27 4.993 4.692 6.953 7.59 1.948 2.881 3.313 6.25 5.017 9.33.2.364-.278.682-.485.338-1.861-3.09-3.364-6.575-5.542-9.374z"/><path d="M13.216 7.065c-2 .818-4.112 2.112-6.201 2.582-1.69.38-3.746.09-5.46.09.175-.727 5.284.638 5.46-.09 4.413 3.093 4.64 2.897 9.39 5.276 2.56 1.282 6.408 2.705 7.643 5.823.402 1.015-.613 2.02-1.408 1.216C16.55 15.802 7.894 14.39 1.027 9.577c-.866-.606-.532-2.181.528-2.181 1.986 0 4.119.251 6.07-.242 2.138-.54 4.258-1.518 6.36-2.221 3.837-1.283 7.65-3.238 11.55-4.17.467-.112.467 1.547 0 1.693-4.207 1.319-8.185 2.92-12.319 4.61z"/></g></svg>