<svg width="128" height="107" xmlns="http://www.w3.org/2000/svg"><g fill="#4A4A4A" fill-rule="evenodd"><text transform="rotate(-12 77.504 105.867)" font-family="BradleyHandITCTT-Bold, Bradley Hand" font-size="20" font-style="expanded" font-weight="bold"><tspan x="24.624" y="64.567">Won’t Affect </tspan> <tspan x="27.924" y="89.567">your Credit!</tspan></text><path d="M60.925 35.935c-1.969-2.573-4.385-4.756-6.734-6.782-4.709-4.062-9.86-7.453-15.15-10.263-5.184-2.755-10.683-5.102-16.152-6.88-3.155-1.026-6.388-1.008-9.6-1.01-2.836-.002-5.656-.172-8.397 1.103-1.263.586-1.264-1.532 0-2.103 2.742-1.238 5.557-1.424 8.397-1.5 8.786-.237 17.805 3.875 25.617 7.998 5.725 3.021 11.134 6.773 16.076 11.412 2.46 2.31 4.993 4.776 6.953 7.727 1.948 2.932 3.313 6.361 5.017 9.496.2.37-.278.694-.485.344-1.861-3.144-3.364-6.693-5.542-9.542z"/><path d="M13.216 7.192c-2 .832-4.112 2.149-6.201 2.627-1.69.387-3.746.092-5.46.092.175-.74 5.284.65 5.46-.092 4.413 3.148 4.64 2.95 9.39 5.37 2.56 1.306 6.408 2.754 7.643 5.928.402 1.033-.613 2.055-1.408 1.237-6.091-6.27-14.746-7.707-21.613-12.606-.866-.617-.532-2.22.528-2.22 1.986 0 4.119.256 6.07-.246 2.138-.55 4.258-1.545 6.36-2.261 3.837-1.306 7.65-3.295 11.55-4.244.467-.114.467 1.575 0 1.723-4.207 1.342-8.185 2.972-12.319 4.692z"/></g></svg>