<svg width="230" height="28" viewBox="0 0 230 28" xmlns="http://www.w3.org/2000/svg"><title>Arrow</title><g fill="#4A4A4A" fill-rule="evenodd"><text font-family="BradleyHandITCTT-Bold, Bradley Hand" font-size="16" font-style="expanded" font-weight="bold" transform="translate(-1 -16)"><tspan x=".392" y="35">Won’t Affect your Credit!</tspan></text><path d="M190.724 19.06c2.098.112 4.185-.161 6.166-.467 3.972-.612 7.792-1.723 11.378-3.146a64.9 64.9 0 0 0 10.1-5.057c1.814-1.12 3.139-2.718 4.465-4.296 1.17-1.394 2.419-2.709 2.913-4.59.228-.867 1.287.02 1.05.88-.512 1.868-1.58 3.33-2.714 4.758-3.506 4.419-9.282 7.13-14.564 9.242-3.87 1.548-7.977 2.634-12.333 3.119-2.17.24-4.446.453-6.729.18-2.268-.272-4.545-1.039-6.814-1.515-.267-.057-.232-.427.029-.383 2.338.403 4.73 1.152 7.053 1.275z"/><path d="M224.766 7.655c.41-1.333.622-2.923 1.245-4.15.504-.993 1.5-1.881 2.207-2.724.297.397-2.504 2.326-2.207 2.723-3.393.85-3.387 1.045-6.557 2.365-1.708.712-4.019 1.997-6.114 1.274-.682-.236-.774-1.163-.037-1.211 5.645-.367 9.933-4.02 15.214-5.342.665-.167 1.329.67.891 1.19-.82.977-1.827 1.918-2.381 3.088-.607 1.281-.985 2.741-1.494 4.074-.93 2.435-1.51 5.143-2.645 7.459-.135.277-.979-.431-.86-.723 1.065-2.631 1.891-5.27 2.738-8.023z"/></g></svg>