<svg width="177" height="65" viewBox="0 0 177 65" xmlns="http://www.w3.org/2000/svg"><title>Arrow</title><g fill="#4A4A4A" fill-rule="evenodd"><text font-family="BradleyHandITCTT-Bold, Bradley Hand" font-size="16" font-style="expanded" font-weight="bold" transform="translate(-1)"><tspan x=".392" y="56">Won’t Affect your Credit!</tspan></text><path d="M97.936 39.6c-1.678-1.262-3.102-2.813-4.423-4.32-2.65-3.023-4.861-6.33-6.694-9.724a64.9 64.9 0 0 1-4.487-10.366c-.668-2.025-.657-4.1-.658-6.161-.001-1.82-.326-2.356.505-4.115.383-.81-.999-.811-1.371 0-.808 1.76-.715 2.292-.765 4.115-.154 5.638 2.528 11.427 5.216 16.44 1.97 3.675 4.418 7.146 7.443 10.318 1.507 1.579 3.115 3.204 5.04 4.462 1.911 1.25 4.148 2.126 6.193 3.22.241.129.452-.178.224-.311-2.05-1.195-4.365-2.159-6.223-3.557z"/><path d="M79.19 8.982c.543-1.284 1.402-2.64 1.714-3.98 2.053 2.832 1.923 2.978 3.502 6.026.852 1.643 1.796 4.113 3.866 4.906.673.258 1.34-.394.807-.904-4.09-3.91-5.027-9.464-8.221-13.87-.403-.557-1.448-.343-1.448.338 0 1.274.166 2.643-.16 3.896-.36 1.372-1.009 2.732-1.476 4.081-.851 2.463-2.149 4.91-2.768 7.414-.074.3 1.028.299 1.124 0 .876-2.7 1.939-5.254 3.06-7.907z"/></g></svg>