<svg width="11" height="16" viewBox="0 0 11 16" xmlns="http://www.w3.org/2000/svg"><title>Shape</title><path d="M9.625 6.26V4.175C9.625 1.869 7.778 0 5.5 0S1.375 1.869 1.375 4.174V6.26C.615 6.26 0 6.884 0 7.65v6.958C0 15.377.616 16 1.375 16h8.25c.76 0 1.375-.623 1.375-1.391V7.652c0-.768-.616-1.391-1.375-1.391zM2.75 4.175c0-1.537 1.231-2.783 2.75-2.783s2.75 1.246 2.75 2.783V6.26h-5.5V4.174zm6.875 10.435h-8.25V7.652h8.25v6.957zm-4.812-2.976v.889c0 .384.308.695.687.695.38 0 .688-.311.688-.695v-.889a1.39 1.39 0 0 0 .687-1.198c0-.769-.616-1.392-1.375-1.392-.76 0-1.375.623-1.375 1.392 0 .513.278.957.688 1.198z" fill="#FFF" fill-rule="nonzero"/></svg>