<svg width="59" height="44" viewBox="0 0 59 44" xmlns="http://www.w3.org/2000/svg"><title>CNBC</title><g fill="#015279" fill-rule="evenodd" opacity=".7"><path d="M10.317 36.95c-.217-1.066-1.08-1.349-2.047-1.44-3.123-.292-3.676 2.07-3.676 3.067 0 1.705.492 3.116 3.557 3.116.566 0 2.126-.589 2.126-1.545h4.409c-.178 2.837-4.892 3.517-6.948 3.517-4.26 0-7.908-.803-7.732-5.05.126-3.032 2.957-5.16 8.588-5.027 3.139.074 6.153 1.064 6.166 3.362h-4.443zM54.473 36.95c-.218-1.066-1.082-1.349-2.048-1.44-3.122-.292-3.675 2.07-3.675 3.067 0 1.705.492 3.116 3.557 3.116.565 0 2.125-.589 2.125-1.545h4.41c-.177 2.837-4.893 3.517-6.949 3.517-4.26 0-7.908-.803-7.731-5.05.126-3.032 2.957-5.16 8.587-5.027 3.139.074 6.154 1.064 6.167 3.362h-4.443zM15.548 33.79h5.723l4.882 6.93h.04v-6.93h3.668v9.621h-5.483l-5.123-6.928h-.04v6.928h-3.667zM35.017 41.395h1.153c2.138 0 2.923-.226 2.923-.972 0-.8-.99-1.067-2.588-1.067h-1.488v2.04zm0-3.866h1.153c1.774 0 2.716-.14 2.716-.886 0-.8-.783-1.066-2.381-1.066h-1.488v1.952zm-4.024-3.738h6.951c3.341 0 5.306.945 5.306 2.372 0 .842-.822 1.883-2.656 2.189v.027c2.208.133 3.023 1.546 3.023 2.393 0 1.696-1.916 2.64-5.652 2.64h-6.972V33.79zM49.237 19.045L32.85 30.11l5.518-13.244 2.618-6.167c1.061-1.993 3.058-3.264 5.236-3.299 2.088 0 3.938 1.014 5.112 2.833 1.208 1.818 1.276 4.791.068 6.633-.542.863-1.343 1.632-2.166 2.18M41.078 8.6l-8.103 19.34-.36-2.11-2.438-15.855c-.102-.967.292-1.783 1.06-2.32l1.163-.7c.067-.244-.271-.325-.43-.407l-2.279-.023c-.146-2.286.846-4.36 2.765-5.608 1.49-.98 3.758-1.235 5.417-.443 2.155.886 3.655 3.206 3.69 5.572-.012.875-.158 1.773-.485 2.554M25.516 28.01L17.538 8.624c-.858-2.075-.497-4.803.97-6.482 1.569-1.76 3.78-2.506 6.06-1.911 1.93.477 3.735 2.343 4.21 4.336.225.746.19 1.644.146 2.46L25.516 28.01zM8.465 18.346C6.83 16.912 6.095 15 6.332 12.785c.237-2.238 1.986-4.43 4.074-5.106 2.144-.676 4.48-.14 6.037 1.48.655.63 1.061 1.376 1.4 2.145l7.707 18.84L8.465 18.346zM6.714 32.109c-2.132-.244-3.776-1.405-4.778-3.379-1.015-1.992-.751-4.82.613-6.586 1.488-1.8 3.639-2.705 5.807-2.26.884.144 1.624.527 2.321.97l16.587 11.26-20.55-.005zM51.747 32.109c2.133-.244 3.775-1.405 4.778-3.379 1.015-1.992.751-4.82-.613-6.586-1.488-1.8-3.64-2.705-5.807-2.26-.884.144-1.624.527-2.321.97l-16.587 11.26 20.55-.005z"/></g></svg>