<svg width="84" height="40" viewBox="0 0 84 40" xmlns="http://www.w3.org/2000/svg"><title>CNN</title><g fill="none" fill-rule="evenodd" opacity=".7"><path d="M26.683 28.077c.763-.077 1.297-.685 1.297-1.371V7.216c0-7.231 9.315-10.733 14.277-2.283a2762.48 2762.48 0 0 1 7.94 13.627V7.217c0-7.232 9.313-10.734 14.276-2.284 5.038 8.603 7.94 13.627 7.94 13.627V.137h11.146v32.279c0 8.298-9.773 9.592-13.742 2.969-2.367-3.882-8.474-13.932-8.474-13.932v10.963c.076 8.298-9.696 9.592-13.742 2.969-2.367-3.882-8.398-13.932-8.398-13.932v9.897c0 5.1-2.977 7.765-7.634 7.765H20.804c-27.56 0-27.789-38.978-.382-38.978h6.108v11.039h-6.718c-11.223 0-12.444 16.9.763 16.9h6.108z" fill="#015279"/><path d="M77.985.137V31.73c0 1.98-1.908 2.436-2.9 1.066 0 0-12.979-20.784-16.262-26.189-.992-1.37-3.053-.913-3.053 1.142v23.98c0 1.98-1.833 2.437-2.825 1.067 0 0-13.055-20.784-16.338-26.189-.992-1.37-3.053-.913-3.053 1.142v23.828c0 1.066-.84 1.98-1.985 1.98H20.04c-19.62 0-19.01-27.863-.458-27.863h7.1" stroke="#F5FAFC" stroke-width="1.241"/></g></svg>