<svg width="55" height="58" viewBox="0 0 55 58" xmlns="http://www.w3.org/2000/svg"><title>ic_free</title><g fill="none" fill-rule="evenodd"><path d="M-1 0h56v56H-1z"/><g stroke="#FFF" stroke-linecap="round" stroke-linejoin="round" stroke-width="2"><path d="M20.064 53.425v-2.144s3.574-2.681 3.574-5.957v-2.621M10.532 29.596l-4.766 3.813c-1.684 1.545-2.383 2.426-2.383 4.766v15.488"/><path d="M1 57v-3.574h21.447V57M7.788 41.749l9.532-9.532c2.194-2.194 5.787 2.08 3.17 5.35a88.157 88.157 0 0 0-2.81 2.99v2.383c0 4.673-4.245 5.958-4.945 5.958M47.468 6.957h5.957v-1.19C53.425 3.023 51.292 1 48.66 1h-4.765"/><path d="M10.532 39.128V6.958A5.958 5.958 0 0 1 16.489 1H49.85a5.958 5.958 0 0 0-5.957 5.958v36.936H17.68M17.68 11.723h19.065M17.68 17.68h19.065M17.68 23.638h11.916"/><path d="M34.362 29.596l1.19 1.19h2.384v2.384l1.192 1.192-1.192 1.19v2.384h-2.383l-1.191 1.192-1.191-1.192h-2.383v-2.383l-1.192-1.191 1.192-1.192v-2.383h2.383z"/></g></g></svg>