<svg width="58" height="54" viewBox="0 0 58 54" xmlns="http://www.w3.org/2000/svg"><title>ic_free</title><g fill="none" fill-rule="evenodd"><path d="M1-1h56v56H1z"/><path d="M53 52.022H5a4 4 0 0 1-4-4V26.155a4 4 0 0 1 4-4h48a4 4 0 0 1 4 4v21.867a4 4 0 0 1-4 4z" stroke="#FFF" stroke-width="2"/><path d="M33.356 7.222l11.2 11.2M14.689 18.422l11.2-11.2" stroke="#FFF" stroke-width="2.001" stroke-linecap="round"/><path d="M33.356 4.733a3.733 3.733 0 1 1-7.467 0 3.733 3.733 0 0 1 7.467 0z" stroke="#FFF" stroke-width="2"/><path fill="#FFF" d="M8.911 43.166V31.34h8.37v2.216h-5.852v2.5h5.727v2.217H11.43v4.893zM25.97 35.152c0-.993-.762-1.596-1.773-1.596h-2.642v3.191h2.642c1.01 0 1.773-.603 1.773-1.595zm-.248 8.014l-2.323-4.202h-1.844v4.202h-2.518V31.34h5.532c2.465 0 3.972 1.613 3.972 3.812 0 2.092-1.312 3.21-2.59 3.51l2.66 4.504h-2.89zM30.44 43.166V31.34h8.368v2.216h-5.85v2.5h5.726v2.217h-5.727v2.677h5.851v2.216zM40.777 43.166V31.34h8.37v2.216h-5.852v2.5h5.727v2.217h-5.727v2.677h5.851v2.216z"/></g></svg>