<svg width="16" height="16" viewBox="0 0 16 16" xmlns="http://www.w3.org/2000/svg"><title>ic_phone</title><path d="M15.966 12.397c-.045-.136-.333-.337-.864-.602a26.524 26.524 0 0 0-.613-.341 57.215 57.215 0 0 1-.722-.398 24.106 24.106 0 0 1-.608-.352c-.03-.023-.125-.089-.284-.199a3.194 3.194 0 0 0-.403-.244.744.744 0 0 0-.324-.08c-.152 0-.341.108-.568.324-.227.216-.436.45-.625.705-.19.254-.39.488-.602.704-.212.216-.387.324-.523.324a.773.773 0 0 1-.256-.057 2.65 2.65 0 0 1-.233-.096 4.246 4.246 0 0 1-.272-.16c-.13-.079-.201-.123-.216-.13-1.038-.576-1.928-1.235-2.671-1.977-.742-.743-1.402-1.633-1.977-2.67a6.582 6.582 0 0 0-.131-.217 4.097 4.097 0 0 1-.16-.272 2.463 2.463 0 0 1-.096-.233.769.769 0 0 1-.057-.256c0-.136.108-.31.324-.523.216-.212.451-.413.705-.602a5.53 5.53 0 0 0 .704-.625c.216-.227.324-.416.324-.568a.742.742 0 0 0-.08-.324 3.159 3.159 0 0 0-.244-.403c-.11-.16-.176-.254-.198-.284a24.96 24.96 0 0 1-.353-.608 57.368 57.368 0 0 1-.398-.722 27.02 27.02 0 0 0-.34-.613C3.94.368 3.739.079 3.602.034A.636.636 0 0 0 3.364 0c-.205 0-.472.038-.801.114a4.5 4.5 0 0 0-.779.238c-.379.16-.78.621-1.204 1.386C.193 2.45 0 3.155 0 3.852c0 .204.013.403.04.597.026.193.074.41.142.653a9.3 9.3 0 0 0 .165.54c.041.117.119.327.233.63.113.303.181.489.204.557.265.743.58 1.405.943 1.989.598.97 1.415 1.971 2.449 3.006 1.034 1.034 2.036 1.85 3.006 2.448a10.31 10.31 0 0 0 1.989.944c.068.022.253.09.556.204.303.114.514.191.63.233.118.042.298.097.54.165.243.068.461.116.654.142.193.027.392.04.597.04.697 0 1.401-.193 2.114-.58.765-.424 1.227-.825 1.386-1.204.083-.19.163-.449.238-.779.076-.33.114-.596.114-.8a.634.634 0 0 0-.034-.24z" fill="#8FA7B3" fill-rule="nonzero"/></svg>