<svg width="58" height="44" viewBox="0 0 58 44" xmlns="http://www.w3.org/2000/svg"><title>ic_free</title><g fill="none" fill-rule="evenodd"><path d="M1-6h56v56H1z"/><g stroke="#FFF" stroke-width="2"><path d="M38.739 7.087h9.739a3.652 3.652 0 0 1 3.652 3.652v21.913M5.87 32.652V10.74a3.652 3.652 0 0 1 3.652-3.652h9.739M57 36.304v-1.217H1v1.217a6.087 6.087 0 0 0 6.087 6.087h43.826A6.087 6.087 0 0 0 57 36.304zM25.348 38.74h7.304M37.74 29H20.26a1 1 0 0 1-1-1V14.174a1 1 0 0 1 1-1H37.74a1 1 0 0 1 1 1V28a1 1 0 0 1-1 1zM22.913 7.087a6.087 6.087 0 1 1 12.174 0v6.087H22.913V7.087z"/></g></g></svg>