<svg width="48" height="48" viewBox="0 0 48 48" xmlns="http://www.w3.org/2000/svg"><title>martha-stewart-seeklogo.com</title><g fill-rule="nonzero" fill="none" opacity=".7"><path d="M47.923 23.963c0 13.232-10.729 23.96-23.96 23.96C10.728 47.924 0 37.196 0 23.964 0 10.728 10.73 0 23.962 0s23.961 10.728 23.961 23.963" fill="#015279"/><path d="M1.664 23.963c0-12.297 10.004-22.3 22.298-22.3 12.296 0 22.297 10.003 22.297 22.3 0 12.296-10 22.3-22.297 22.3-12.294 0-22.298-10.004-22.298-22.3m-.55 0c0 12.597 10.249 22.85 22.849 22.85 12.598 0 22.847-10.253 22.847-22.85 0-12.6-10.25-22.852-22.848-22.852-12.6 0-22.848 10.252-22.848 22.852" fill="#FFF"/><path d="M37.127 33.373c-.416.636-.667.956-.667.956-.111-.06-1.99-1.33-2.101-1.397.145-.406.347-.817.57-1.157.32-.481 1.082-.828 1.86-.346.853.53.673 1.43.338 1.944zm3.082-1.057c-1.045.38-1.705.462-2.222.43v-.003c.205-.586.194-1.585-.744-2.167-1.26-.783-2.095.09-2.601.905-.422.677-.613 1.245-.74 1.452-.078.126-.52.75-.55.8 1.313.555 4.202 2.67 5.143 3.39l.716-1.091c-.697-.235-1.77-1.08-2.31-1.412.031-.138.48-.56.68-.915.003-.005.005-.007.005-.01.978.13 2.22-.33 2.987-.735.756-.4 1.535-1.328 1.69-1.872a.89.89 0 0 0-.062-.035c-.174.3-.772.821-1.992 1.263zm-9.62-20.139c.236.204.804.731 1.005.906.316-.479.942-1.288 1.623-2.105.648.575 2.139 1.967 2.596 2.464-.762.72-1.509 1.377-1.97 1.7.215.226.729.788.915.98.843-1.044 3.543-3.703 4.488-4.275-.307-.317-.686-.743-.943-1.01-.315.436-1.134 1.296-2.012 2.148-.54-.379-2.104-1.868-2.652-2.508.784-.917 1.576-1.767 2.002-2.09-.332-.284-.754-.691-1.035-.93-.552.944-3.004 3.843-4.018 4.72zm7.059 13.659c.117-.697.338-1.701.423-2.042a2.972 2.972 0 0 1-.863-.185c-.023.439.035.609-.117 1.938-.11.957-.434 2.784-.509 3.449.238-.012.659-.025.934.066-.101-.66-.044-1.5.016-2.148.783.087 4.303.498 5.455.833.026-.222.108-1.085.14-1.349-1.228.095-4.82-.462-5.48-.562zm-6.306 13.61c-.256-1.419-.423-2.713-.423-2.713s1.14.805 2.261 1.637l-1.838 1.075zm-1.373-3.559c.226.791 1.183 5.638 1.082 6.588.215-.126.714-.41.896-.464a25.17 25.17 0 0 1-.514-2.072l2.157-1.265c.696.526 1.474 1.138 1.743 1.42.19-.187.81-.715.995-.824-1.877-1.158-4.838-3.542-5.402-4.024-.134.08-.6.428-.957.641zm-4.12 5.759l-1.98-4.247-1.024-.015s.044.344-.017.499c-.115.345-1.566 3.524-1.566 3.524s-1.252-3.925-1.28-4.622c-.332-.005-.71-.076-1.202-.134.753 1.973 1.58 5.147 1.792 6.441.297.004.74.013.897.016.201-.853 1.526-4.108 1.76-4.44.188.384 2.099 4.49 2.099 4.49l.767.011c.32-1.23 1.731-5.88 2.122-6.533-.306.04-.816.1-1.128.151-.12.744-1.24 4.859-1.24 4.859zm-14.63-2.322c.505.25 2.525 1.749 2.941 2.143.113-.117.474-.48.608-.665-.712-.163-2.181-1.257-2.181-1.257s.496-.714 1.186-1.666c.267.198 1.252.922 1.435 1.116l.54-.69c-.125-.04-1.247-.807-1.533-1.008l1.263-1.78c.442.22 1.363.953 1.597 1.234.093-.077.589-.552.589-.552s-2.357-1.608-2.78-1.916c-.576 1.133-2.852 4.224-3.665 5.041zm1.778-5.576c.124-.097.538-.284.807-.35-.247-.37-.398-.465-1.086-1.614-.495-.83-1.348-2.473-1.69-3.049-.185.154-.516.4-.793.494.484.463.949 1.176 1.293 1.725-.675.41-3.713 2.242-4.832 2.677.116.194.61.939.747 1.167.916-.819 4.1-2.584 4.684-2.901.331.623.732 1.532.87 1.85zm-5.376-6.804c.265-.695.476-1.515 1.164-1.597.69-.085 1.1.617 1.177 1.257.08.636-.097 1.206-.2 1.34.177-.007.734-.075.734-.075.046-.303.121-.873.07-1.441-.075-.841-.487-2.113-1.869-2.037-1.33.073-1.714 1.187-1.93 1.717-.22.535-.266 1.455-1.098 1.603-.533.091-1.15-.18-1.28-1.258-.106-.88.337-1.324.447-1.52-.317-.028-.843-.03-.992-.026.056.654-.174 1.057-.007 1.987.161.899.986 1.837 2.023 1.754 1.223-.095 1.495-1.01 1.761-1.704zM32.14 6.814c.028-.158.174-.493.33-.724-.427-.107-.868-.198-2.148-.596-.92-.287-2.878-1.01-3.517-1.21-.032.238-.081.562-.224.817.67.023 1.686.313 2.31.495-.23.754-1.312 4.226-1.857 5.293.217.068 1.094.306 1.348.388.137-1.223 1.37-4.738 1.595-5.367.66.245 1.847.754 2.163.905zM21.342 4.669c.63-.086 1.322.197 1.463 1.191.139.993-.53 1.415-1.283 1.52-.754.105-1.114.098-1.114.098-.023-.124-.302-2.374-.322-2.507a6.546 6.546 0 0 1 1.256-.302zm-.173 5.99c-.269-.686-.58-2.014-.67-2.643.125-.064.5.013.947-.056.482.835 1.167 1.565 2.043 2.01.742.377 1.775.435 2.179.348 0-.014-.005-.045-.005-.045s-.89-.137-1.81-1a5.925 5.925 0 0 1-1.23-1.645c.673-.303 1.396-.85 1.243-1.94-.206-1.471-1.535-1.56-2.483-1.426-.79.11-1.347.328-1.587.362-.146.02-.983.096-1.044.102.415 1.367.906 4.802 1.004 6.11l1.413-.176zM10.213 21.697c-.919-.27-4.464-2.574-4.464-2.574s4.16-.257 5.59-.022c.028-.067.054-.28.08-.341-1.177-1.102-3.652-4.139-3.652-4.139s4.45 1.118 4.806 1.387c.11-.252.52-1.155.627-1.33-1.846-.185-6.225-1.4-6.225-1.4l-.422 1.029s2.441 2.796 2.835 3.426c-.67.102-4.37.296-4.37.296l-.403.967s4.75 3.06 5.4 3.68c.068-.297.136-.78.198-.979zm30.712-3.714s-1.01.963-2.048 1.9l-.696-2.014a65.95 65.95 0 0 1 2.744.114zm-5.284-.068c.583-.047 1.313-.06 2.037-.053l.82 2.363c-.654.578-1.267 1.1-1.595 1.308.09.252.373 1.101.441 1.304 1.504-1.614 4.41-4.053 4.994-4.512-.05-.147-.27-.699-.405-1.09-.82.068-5.729.065-6.642-.221.084.239.293.735.35.9zm-21.677-6.609c-.308-1.408-.527-2.695-.527-2.695s1.172.757 2.322 1.546l-1.795 1.15zm-.55-4.197c-.132.084-.62.474-.97.698.255.783 1.392 5.558 1.325 6.513.213-.133.68-.46.828-.554a25.256 25.256 0 0 1-.525-1.971l2.11-1.344c.713.496 1.363.976 1.642 1.245.222-.143.959-.665 1.138-.78-1.92-1.086-4.965-3.347-5.548-3.807z" fill="#FFF"/></g></svg>