<svg width="213" height="24" viewBox="0 0 213 24" xmlns="http://www.w3.org/2000/svg"><title>MSNBC</title><g fill="#015279" fill-rule="evenodd" opacity=".7"><path d="M135.94 23.215L120.664 4.851l-.106.061v18.303h-7.773V1.118h12.328l14.74 17.383.108-.06V1.118h7.772v22.097zM164.911 9.993c3.481 0 5.412-.824 5.412-2.602 0-1.774-1.93-2.601-5.412-2.601h-6.486v5.203h6.486zm0 9.55c3.91 0 6.59-.397 6.59-2.939 0-2.538-2.679-2.936-6.59-2.936h-6.486v5.876h6.486zm-14.795 3.672V1.117h14.526c6.913-.246 13.99 1.409 13.99 5.724 0 2.419-2.949 4.101-6.81 4.837v.06c4.878.581 8.524 2.51 8.524 5.756 0 4.376-9.648 5.967-15.597 5.721h-14.633zM204.104 8.278c.054-2.324-2.41-4.193-7.396-4.193-5.895 0-7.395 4.992-7.395 8.083 0 3.09 1.5 8.079 7.395 8.079 4.985 0 7.45-1.865 7.396-4.193h8.846c-.376 5.541-7.345 7.622-16.242 7.622-11.202 0-16.241-5.052-16.241-11.508 0-6.46 5.039-11.51 16.241-11.51 8.897 0 15.866 2.08 16.242 7.62h-8.846zM41.6 23.212V1.117h12.622l4.698 14.966H59l4.538-14.966h12.381v22.095h-6.968V4.73l-.08-.061-6.728 18.544h-7.166l-6.33-18.697-.08.06v18.637zM99.46 7.438c.054-.875-.438-1.53-1.424-1.998-.93-.47-2.354-.72-4.215-.72-2.518 0-4.707.937-4.707 2.061 0 1.656 3.504 2.187 6.404 2.626 6.621.966 16.254 1.341 16.254 7.433 0 4.747-8.207 6.995-17.347 6.995-9.197 0-17.295-1.529-17.46-7.652H87.91c-.053 2.124 2.683 3.28 6.622 3.28 2.518 0 5.747-.748 5.747-2.249 0-3.061-8.099-2.405-16.692-4.56-3.995-1-5.965-3.06-5.965-5.497.438-5.341 8.647-6.81 16.91-6.81 8.156 0 16.53 1.656 15.872 7.09H99.46z"/><g><path d="M33.252 14l-11.317 7.392 3.81-8.848 1.808-4.12c.734-1.332 2.112-2.18 3.617-2.205 1.442 0 2.72.678 3.53 1.893.835 1.215.882 3.2.047 4.432-.373.576-.927 1.09-1.495 1.456M27.617 7.022L22.02 19.943l-.25-1.409-1.684-10.593c-.07-.646.203-1.192.734-1.55l.803-.468c.046-.163-.188-.218-.297-.272l-1.575-.016c-.1-1.527.585-2.913 1.91-3.746 1.029-.654 2.595-.826 3.74-.296 1.49.592 2.525 2.142 2.55 3.723-.007.584-.11 1.184-.335 1.706M16.869 19.991l-5.51-12.953c-.593-1.387-.343-3.21.67-4.331 1.084-1.176 2.611-1.675 4.184-1.277 1.334.319 2.58 1.565 2.907 2.897.157.498.133 1.098.103 1.643L16.87 19.991zM5.091 13.533c-1.13-.958-1.635-2.235-1.473-3.715.164-1.497 1.373-2.96 2.815-3.412 1.48-.451 3.095-.094 4.17.99.452.42.731.919.966 1.432l5.323 12.588-11.8-7.883zM3.883 22.729c-1.473-.163-2.607-.938-3.3-2.257-.702-1.33-.519-3.22.424-4.4 1.027-1.203 2.513-1.807 4.01-1.51.61.096 1.122.352 1.604.647l11.455 7.523-14.193-.003zM34.986 22.729c1.473-.163 2.607-.938 3.3-2.257.7-1.33.518-3.22-.425-4.4-1.026-1.203-2.512-1.807-4.01-1.51-.61.096-1.123.352-1.603.647l-11.457 7.523 14.195-.003z"/><path d="M33.252 14l-11.317 7.392 3.81-8.848 1.808-4.12c.734-1.332 2.112-2.18 3.617-2.205 1.442 0 2.72.678 3.53 1.893.835 1.215.882 3.2.047 4.432-.373.576-.927 1.09-1.495 1.456M27.617 7.022L22.02 19.943l-.25-1.409-1.684-10.593c-.07-.646.203-1.192.734-1.55l.803-.468c.046-.163-.188-.218-.297-.272l-1.575-.016c-.1-1.527.585-2.913 1.91-3.746 1.029-.654 2.595-.826 3.74-.296 1.49.592 2.525 2.142 2.55 3.723-.007.584-.11 1.184-.335 1.706M16.869 19.991l-5.51-12.953c-.593-1.387-.343-3.21.67-4.331 1.084-1.176 2.611-1.675 4.184-1.277 1.334.319 2.58 1.565 2.907 2.897.157.498.133 1.098.103 1.643L16.87 19.991zM5.091 13.533c-1.13-.958-1.635-2.235-1.473-3.715.164-1.497 1.373-2.96 2.815-3.412 1.48-.451 3.095-.094 4.17.99.452.42.731.919.966 1.432l5.323 12.588-11.8-7.883zM3.883 22.729c-1.473-.163-2.607-.938-3.3-2.257-.702-1.33-.519-3.22.424-4.4 1.027-1.203 2.513-1.807 4.01-1.51.61.096 1.122.352 1.604.647l11.455 7.523-14.193-.003zM34.986 22.729c1.473-.163 2.607-.938 3.3-2.257.7-1.33.518-3.22-.425-4.4-1.026-1.203-2.512-1.807-4.01-1.51-.61.096-1.123.352-1.603.647l-11.457 7.523 14.195-.003z"/></g></g></svg>