<svg width="63" height="48" viewBox="0 0 63 48" xmlns="http://www.w3.org/2000/svg"><title>Today</title><g fill="#015279" fill-rule="evenodd" opacity=".7"><path d="M.043 35.279v2.888h3.44v9.491h3.3v-9.49h3.423v-2.89zM22.375 36.867a6.344 6.344 0 0 0-2.102-1.318 7.234 7.234 0 0 0-2.628-.472c-.948 0-1.836.159-2.637.473a6.461 6.461 0 0 0-2.101 1.317 6.002 6.002 0 0 0-1.396 2.023c-.333.783-.502 1.653-.502 2.588 0 .934.169 1.805.502 2.587a5.99 5.99 0 0 0 1.396 2.024 6.456 6.456 0 0 0 2.1 1.317 7.206 7.206 0 0 0 2.638.472 7.23 7.23 0 0 0 2.628-.472 6.34 6.34 0 0 0 2.102-1.318 6.062 6.062 0 0 0 1.386-2.023c.333-.782.502-1.652.502-2.587 0-.935-.169-1.805-.502-2.588a6.066 6.066 0 0 0-1.386-2.023m-3.387 7.817c-.4.179-.852.27-1.343.27-.503 0-.961-.091-1.361-.27a3.047 3.047 0 0 1-1.026-.737 3.37 3.37 0 0 1-.659-1.098 3.92 3.92 0 0 1-.235-1.371c0-.492.08-.953.235-1.372.156-.418.377-.787.659-1.098.28-.31.625-.557 1.026-.736.4-.18.858-.27 1.361-.27.49 0 .943.09 1.343.27.4.178.745.426 1.027.736.28.31.502.68.658 1.098.156.42.235.881.235 1.372 0 .49-.08.952-.235 1.371a3.381 3.381 0 0 1-.658 1.098c-.28.31-.626.557-1.027.737M36.203 36.93a6.22 6.22 0 0 0-2.117-1.225c-.812-.283-1.715-.426-2.686-.426h-5.211v12.38h5.23a8.1 8.1 0 0 0 2.667-.427 6.131 6.131 0 0 0 2.117-1.234 5.7 5.7 0 0 0 1.395-1.95c.333-.759.502-1.63.502-2.589 0-.959-.17-1.83-.502-2.588a5.614 5.614 0 0 0-1.395-1.941m-1.459 4.53c0 .442-.076.87-.226 1.27-.15.4-.367.753-.648 1.051-.28.298-.632.54-1.045.719-.412.179-.889.27-1.417.27h-1.92v-6.602h1.938c.553 0 1.043.084 1.456.251.412.167.76.403 1.034.7.274.298.483.648.62 1.04.138.396.208.833.208 1.3M47.02 35.279h-4.067l-4.635 12.288-.035.091h3.734l.608-1.762h4.742l.607 1.762h3.735l-4.672-12.335-.016-.044zm-.564 7.728h-2.939l1.47-4.33 1.47 4.33zM59.244 35.279l-2.592 4.45-2.63-4.45h-3.73l4.71 7.393v4.986h3.3v-4.986l4.692-7.393zM8.138 29.701a22.226 22.226 0 0 0-.055 1.561H0c0-.54.013-1.078.041-1.611C.881 13.22 14.501.157 31.177.157c16.79 0 30.481 13.242 31.15 29.83.019.422.027.848.027 1.275h-8.082c0-.478-.015-.951-.045-1.421-.738-12.046-10.795-21.62-23.05-21.62-12.208 0-22.234 9.501-23.04 21.48zm10.423.094c-.057.482-.085.97-.085 1.467h-8.083c0-.46.014-.915.044-1.367.706-10.814 9.72-19.369 20.74-19.369 11.036 0 20.062 8.58 20.744 19.418.027.436.04.875.04 1.318H43.88c0-.463-.023-.919-.074-1.37-.686-6.345-6.087-11.302-12.628-11.302-6.505 0-11.885 4.907-12.616 11.205zm12.616-8.9c5.24 0 9.57 3.864 10.287 8.893.07.481.106.974.106 1.474H20.785c0-.671.064-1.327.187-1.963a10.387 10.387 0 0 1 10.205-8.405z"/></g></svg>