<?xml version="1.0" encoding="UTF-8"?>
<svg width="16px" height="16px" viewBox="0 0 16 16" version="1.1" xmlns="http://www.w3.org/2000/svg" xmlns:xlink="http://www.w3.org/1999/xlink">
    <!-- Generator: Sketch 50.2 (55047) - http://www.bohemiancoding.com/sketch -->
    <title>ic_phone</title>
    <desc>Created with Sketch.</desc>
    <defs></defs>
    <g id="Confirmed" stroke="none" stroke-width="1" fill="none" fill-rule="evenodd">
        <g id="About_Us" transform="translate(-1001.000000, -32.000000)" fill="#8FA7B3" fill-rule="nonzero">
            <g id="Top-Header">
                <g id="Content" transform="translate(333.000000, 28.000000)">
                    <g id="Phone" transform="translate(668.000000, 0.000000)">
                        <g id="ic_phone" transform="translate(0.000000, 4.000000)">
                            <path d="M15.9659643,12.3970458 C15.9207076,12.2606872 15.6327687,12.0598111 15.1023464,11.794895 C14.9586556,11.7113923 14.7539061,11.5979194 14.4889736,11.4539588 C14.2238023,11.3099983 13.9831101,11.1773412 13.767335,11.0561071 C13.5511221,10.9349128 13.3485618,10.8174995 13.1592958,10.7040266 C13.1290451,10.6813002 13.0343525,10.615111 12.8752576,10.5050212 C12.7160036,10.3952497 12.5817064,10.3137769 12.4716495,10.2606424 C12.3618315,10.2078264 12.2538047,10.1812393 12.1477282,10.1812393 C11.9962358,10.1812393 11.8070097,10.2892594 11.579811,10.5050212 C11.3526122,10.7210615 11.1442008,10.9557287 10.9548951,11.2097393 C10.7655495,11.4636305 10.5647406,11.6982978 10.3528264,11.9142187 C10.1405938,12.1302192 9.96621444,12.23812 9.83000665,12.23812 C9.76162414,12.23812 9.67636491,12.2190553 9.57418917,12.1814432 C9.47205324,12.1435924 9.39435669,12.1111545 9.34101991,12.0850052 C9.28816079,12.0582987 9.19744847,12.0054428 9.06856454,11.9256416 C8.9394418,11.8460792 8.86763617,11.802497 8.85251082,11.794895 C7.81463299,11.219013 6.92450597,10.5599069 6.18197055,9.81773587 C5.43967396,9.07512705 4.78044739,8.18513479 4.20468889,7.14720186 C4.19712622,7.13203764 4.15346171,7.06003746 4.073974,6.93132072 C3.99436688,6.80248458 3.94130873,6.71169829 3.91479956,6.65852403 C3.88829039,6.60554877 3.85608931,6.52785703 3.81827593,6.42560802 C3.78046255,6.32335901 3.76147625,6.23818467 3.76147625,6.1699258 C3.76147625,6.03364685 3.86946331,5.85931806 4.08539762,5.64717823 C4.30129213,5.4351578 4.53621274,5.23432148 4.78992064,5.04506728 C5.04382755,4.85581307 5.27850934,4.64741455 5.49448346,4.4202299 C5.71037797,4.19292585 5.81832522,4.00363185 5.81832522,3.85214889 C5.81832522,3.74615857 5.79181605,3.6380986 5.73883751,3.52828738 C5.68581917,3.41823736 5.60438109,3.28394847 5.49448346,3.12478389 C5.38454602,2.96569892 5.3182731,2.87109172 5.29550546,2.84064388 C5.18198571,2.65138968 5.06468461,2.44876231 4.94332356,2.23284138 C4.8219625,2.01696024 4.68949626,1.77632283 4.54548697,1.51120774 C4.4015971,1.24621206 4.28803755,1.04159463 4.20460928,0.897673875 C3.93959718,0.367483501 3.73886783,0.0794827848 3.60246102,0.0341891398 C3.54940288,0.0114627151 3.46979576,0 3.36383868,0 C3.15916877,0 2.89216649,0.0378110393 2.56263282,0.113671925 C2.23297973,0.189413407 1.97357993,0.26885639 1.78415479,0.352319284 C1.4053443,0.511324655 1.00384579,0.973415357 0.579539837,1.73843219 C0.193166678,2.45039416 0,3.15507253 0,3.85194988 C0,4.0563285 0.0132545856,4.25517476 0.0397637567,4.44852848 C0.0662729278,4.64168319 0.113639165,4.85951458 0.18190227,5.10198284 C0.250045966,5.3443715 0.305014682,5.52443165 0.346569599,5.64168568 C0.38816432,5.7590193 0.465821066,5.96920888 0.579500034,6.27233401 C0.693019788,6.57537954 0.761282894,6.76089244 0.784010726,6.82907171 C1.04914224,7.57152132 1.36355056,8.23432894 1.72715609,8.81769358 C2.3254036,9.78732783 3.14181442,10.7894 4.17591092,11.823512 C5.21004722,12.8575444 6.21198244,13.6738649 7.18175638,14.2723141 C7.76507755,14.6358573 8.42816506,14.9502063 9.17054127,15.2155204 C9.23876457,15.2381275 9.42428896,15.3062271 9.72723386,15.4201379 C10.0302982,15.5337302 10.2405804,15.6113821 10.3579213,15.6530539 C10.475302,15.6947654 10.6554131,15.7497705 10.8976177,15.8180294 C11.1403399,15.8862883 11.3579857,15.9336516 11.5511524,15.9603581 C11.7444385,15.9865074 11.9433369,16 12.147768,16 C12.8446487,16 13.5494105,15.8067259 14.261536,15.4204165 C15.0265207,14.996296 15.4885206,14.5947428 15.6476154,14.2156772 C15.7312825,14.0264628 15.8105314,13.7669994 15.8862776,13.4373668 C15.9622626,13.1078933 15.9999963,12.8409474 15.9999963,12.6363299 C16.0002352,12.5299416 15.9888115,12.4505384 15.9659643,12.3970458 Z" id="Shape"></path>
                        </g>
                    </g>
                </g>
            </g>
        </g>
    </g>
</svg>