<?xml version="1.0" encoding="UTF-8"?>
<svg width="16px" height="16px" viewBox="0 0 16 16" version="1.1" xmlns="http://www.w3.org/2000/svg" xmlns:xlink="http://www.w3.org/1999/xlink">
    <!-- Generator: Sketch 50.2 (55047) - http://www.bohemiancoding.com/sketch -->
    <title>Group</title>
    <desc>Created with Sketch.</desc>
    <defs></defs>
    <g id="Fillup-Form" stroke="none" stroke-width="1" fill="none" fill-rule="evenodd">
        <g id="Fillup_Form_1440" transform="translate(-826.000000, -374.000000)" fill="#8FA7B3">
            <g id="Content" transform="translate(150.000000, 342.000000)">
                <g id="1">
                    <g id="Group-14" transform="translate(32.000000, 32.000000)">
                        <g id="Disclosure" transform="translate(644.000000, 0.000000)">
                            <g id="Group">
                                <path d="M13.2144,0 L8.1184,0 C6.58293333,0 5.33333333,1.2496 5.33333333,2.7856 L5.33333333,5.33333333 L2.7856,5.33333333 C1.2496,5.33333333 0,6.58293333 0,8.11893333 L0,13.2149333 C0,14.7504 1.2496,16 2.7856,16 L7.8816,16 C9.41706667,16 10.6666667,14.7504 10.6666667,13.2144 L10.6666667,10.6666667 L13.2144,10.6666667 C14.7504,10.6666667 16,9.41706667 16,7.88106667 L16,2.7856 C16,1.2496 14.7504,0 13.2144,0 Z M9.6,13.2144 C9.6,14.1626667 8.82933333,14.9333333 7.88106667,14.9333333 L2.7856,14.9333333 C1.83733333,14.9333333 1.06666667,14.1626667 1.06666667,13.2144 L1.06666667,8.1184 C1.06666667,7.17066667 1.83733333,6.4 2.7856,6.4 L5.33333333,6.4 L5.33333333,7.88106667 C5.33333333,9.41706667 6.58293333,10.6666667 8.11893333,10.6666667 L9.6,10.6666667 L9.6,13.2144 Z M9.6,9.6 L8.11893333,9.6 C7.17066667,9.6 6.4,8.82933333 6.4,7.88106667 L6.4,6.4 L7.88106667,6.4 C8.82933333,6.4 9.6,7.17066667 9.6,8.11893333 L9.6,9.6 Z M14.9333333,7.88106667 C14.9333333,8.82933333 14.1626667,9.6 13.2144,9.6 L10.6666667,9.6 L10.6666667,8.11893333 C10.6666667,6.58293333 9.41706667,5.33333333 7.88106667,5.33333333 L6.4,5.33333333 L6.4,2.7856 C6.4,1.83733333 7.17066667,1.06666667 8.11893333,1.06666667 L13.2149333,1.06666667 C14.1626667,1.06666667 14.9333333,1.83733333 14.9333333,2.7856 L14.9333333,7.88106667 Z" id="Shape" fill-rule="nonzero"></path>
                                <path d="M14.9333333,7.88106667 C14.9333333,8.82933333 14.1626667,9.6 13.2144,9.6 L10.6666667,9.6 L10.6666667,8.11893333 C10.6666667,6.58293333 9.41706667,5.33333333 7.88106667,5.33333333 L6.4,5.33333333 L6.4,2.7856 C6.4,1.83733333 7.17066667,1.06666667 8.11893333,1.06666667 L13.2149333,1.06666667 C14.1626667,1.06666667 14.9333333,1.83733333 14.9333333,2.7856 L14.9333333,7.88106667 Z" id="Path" fill-opacity="0.100000001"></path>
                            </g>
                        </g>
                    </g>
                </g>
            </g>
        </g>
    </g>
</svg>