<?xml version="1.0" encoding="UTF-8"?>
<svg width="11px" height="14px" viewBox="0 0 11 14" version="1.1" xmlns="http://www.w3.org/2000/svg" xmlns:xlink="http://www.w3.org/1999/xlink">
    <!-- Generator: Sketch 50.2 (55047) - http://www.bohemiancoding.com/sketch -->
    <title>ic_lock</title>
    <desc>Created with Sketch.</desc>
    <defs></defs>
    <g id="Fillup-Form" stroke="none" stroke-width="1" fill="none" fill-rule="evenodd">
        <g id="Fillup_Form_1440" transform="translate(-154.000000, -2034.000000)">
            <g id="Content" transform="translate(150.000000, 342.000000)">
                <g id="Secure" transform="translate(1.000000, 1688.000000)">
                    <g id="Group-4">
                        <g id="ic_lock" transform="translate(0.000000, 3.000000)">
                            <rect id="Rectangle" x="0" y="0" width="16" height="16"></rect>
                            <path d="M13.7324103,7.64205792 C13.5541176,7.45643511 13.3377651,7.36369335 13.0830183,7.36369335 L12.7776364,7.36369335 L12.7776364,5.4544948 C12.7776364,4.23481709 12.3576068,3.18756312 11.5172801,2.31255877 C10.6770202,1.43751959 9.67141063,1 8.49994976,1 C7.32852233,1 6.32271212,1.43751959 5.48251913,2.31252394 C4.64219236,3.18756312 4.22216275,4.23478226 4.22216275,5.4544948 L4.22216275,7.36369335 L3.91664714,7.36369335 C3.66210098,7.36369335 3.44561466,7.45643511 3.26735542,7.64205792 C3.08909618,7.82754143 3,8.05297041 3,8.31827522 L3,14.0454878 C3,14.3105488 3.08912962,14.5360474 3.26735542,14.7217051 C3.44561466,14.9071538 3.66210098,15 3.91664714,15 L13.0832524,15 C13.3379992,15 13.5543183,14.9072582 13.7326444,14.7217051 C13.9107365,14.5360474 13.9999999,14.3105488 13.9999999,14.0454878 L13.9999999,8.31817074 C14.0001336,8.05307489 13.9107365,7.82768073 13.7324103,7.64205792 Z M10.9443756,7.36369335 L6.05552393,7.36369335 L6.05552393,5.4544948 C6.05552393,4.75187936 6.29428429,4.1519311 6.77170468,3.65485898 C7.24919195,3.1577172 7.8252402,2.90919855 8.50005009,2.90919855 C9.17492687,2.90919855 9.75084134,3.15768238 10.2283621,3.65485898 C10.7056487,4.15189628 10.9443756,4.75187936 10.9443756,5.4544948 L10.9443756,7.36369335 Z" id="Shape" fill="#939DA6" fill-rule="nonzero"></path>
                        </g>
                    </g>
                </g>
            </g>
        </g>
    </g>
</svg>