<?xml version="1.0" encoding="UTF-8"?>
<svg width="12px" height="12px" viewBox="0 0 12 12" version="1.1" xmlns="http://www.w3.org/2000/svg" xmlns:xlink="http://www.w3.org/1999/xlink">
    <!-- Generator: Sketch 50.2 (55047) - http://www.bohemiancoding.com/sketch -->
    <title>ic_question</title>
    <desc>Created with Sketch.</desc>
    <defs></defs>
    <g id="Offers-Page" stroke="none" stroke-width="1" fill="none" fill-rule="evenodd">
        <g id="Offers_Page_1440" transform="translate(-346.000000, -498.000000)" fill="#8FA7B3" fill-rule="nonzero">
            <g id="Refine-Results" transform="translate(152.000000, 428.000000)">
                <g id="Group-12" transform="translate(32.000000, 64.000000)">
                    <g id="Loan-Purpose">
                        <g id="ic_question" transform="translate(162.000000, 6.000000)">
                            <path d="M5.91991304,0.00052173913 C2.60647826,0.0448695652 -0.0434347826,2.76717391 0.000652173913,6.08073913 C0.045,9.39286957 2.76704348,12.0435652 6.08034783,11.9994783 C9.39313043,11.9548696 12.0435652,9.23256522 11.9994783,5.91926087 C11.9551304,2.60686957 9.23295652,-0.0436956522 5.91991304,0.00052173913 Z M5.90217391,9.65217391 L5.86904348,9.65165217 C5.35878261,9.63652174 4.99904348,9.2606087 5.01352174,8.75791304 C5.02773913,8.26382609 5.39621739,7.90513043 5.88965217,7.90513043 L5.91926087,7.90565217 C6.44373913,7.92117391 6.79943478,8.29330435 6.78469565,8.81047826 C6.77008696,9.306 6.40734783,9.65217391 5.90217391,9.65217391 Z M8.04847826,5.39230435 C7.92847826,5.56278261 7.6646087,5.77447826 7.33213043,6.03352174 L6.966,6.28630435 C6.765,6.44256522 6.64369565,6.58956522 6.59817391,6.73421739 C6.56230435,6.84808696 6.54469565,6.87821739 6.54156522,7.10986957 L6.54104348,7.16869565 L5.14304348,7.16869565 L5.14708696,7.0503913 C5.16417391,6.56413043 5.17617391,6.27808696 5.37769565,6.04173913 C5.69386957,5.67052174 6.39130435,5.22143478 6.42091304,5.2023913 C6.52082609,5.12713043 6.60508696,5.04143478 6.66782609,4.94986957 C6.81456522,4.74756522 6.87952174,4.58830435 6.87952174,4.43178261 C6.87952174,4.2146087 6.81508696,4.01373913 6.68765217,3.83491304 C6.56517391,3.66234783 6.33247826,3.57495652 5.99595652,3.57495652 C5.66217391,3.57495652 5.43365217,3.68086957 5.29695652,3.89817391 C5.15634783,4.1216087 5.08526087,4.35626087 5.08526087,4.596 L5.08526087,4.6556087 L3.64382609,4.6556087 L3.64643478,4.5933913 C3.6836087,3.71047826 3.99873913,3.07473913 4.58269565,2.70378261 C4.9496087,2.46756522 5.40613043,2.34782609 5.93882609,2.34782609 C6.63613043,2.34782609 7.22478261,2.51726087 7.68821739,2.85143478 C8.15778261,3.19004348 8.39595652,3.69717391 8.39595652,4.35873913 C8.39595652,4.72878261 8.27908696,5.0763913 8.04847826,5.39230435 Z" id="Shape"></path>
                        </g>
                    </g>
                </g>
            </g>
        </g>
    </g>
</svg>