<?xml version="1.0" encoding="UTF-8"?>
<svg width="162px" height="103px" viewBox="0 0 162 103" version="1.1" xmlns="http://www.w3.org/2000/svg" xmlns:xlink="http://www.w3.org/1999/xlink">
    <!-- Generator: Sketch 50.2 (55047) - http://www.bohemiancoding.com/sketch -->
    <title>Arrow</title>
    <desc>Created with Sketch.</desc>
    <defs></defs>
    <g id="Contractor-Partnership" stroke="none" stroke-width="1" fill="none" fill-rule="evenodd">
        <g id="Contractor_Partnership_1024" transform="translate(-720.000000, -2546.000000)" fill="#4A4A4A">
            <g id="Arrow" transform="translate(710.000000, 2546.000000)">
                <text id="Our-Process-is-Safe," transform="translate(90.407206, 69.682268) rotate(-12.000000) translate(-90.407206, -69.682268) " font-family="BradleyHandITCTT-Bold, Bradley Hand" font-size="20" font-style="expanded" font-weight="bold" line-spacing="25">
                    <tspan x="24.0572059" y="61.6822681">Our  Process  is </tspan>
                    <tspan x="9.08720595" y="86.6822681">Safe, Easy &amp; Fast!</tspan>
                </text>
                <g id="Page-1" transform="translate(43.500000, 22.596491) scale(-1, 1) translate(-43.500000, -22.596491) translate(10.000000, 0.000000)">
                    <path d="M6.07547393,35.3049165 C8.04351794,32.776488 10.4599939,30.6318035 12.8086062,28.6417266 C17.5178069,24.6504726 22.6694515,21.3188777 27.9588193,18.5581415 C33.143065,15.8521125 38.6420115,13.5464776 44.1110182,11.7990156 C47.2659929,10.7913991 50.4987541,10.8088721 53.7108525,10.8070175 C56.5470416,10.80538 59.3667272,10.638374 62.1081752,11.8901944 C63.3709702,12.4666031 63.3723008,10.385113 62.1081752,9.8245614 C59.3659633,8.60791003 56.5506256,8.42603088 53.7108525,8.35087719 C44.9251276,8.11836579 35.9055151,12.1582033 28.0938811,16.2081064 C22.369388,19.1765717 16.9595956,22.8625748 12.0181951,27.4207232 C9.55780738,29.6906795 7.02489881,32.1128648 5.06483876,35.0115585 C3.11741995,37.8920165 1.75216427,41.2616687 0.0482559877,44.3411344 C-0.152673455,44.7050568 0.325698297,45.0229934 0.533281032,44.6788925 C2.39420703,41.5899125 3.89652054,38.1037099 6.07547393,35.3049165 Z" id="Fill-1"></path>
                    <path d="M53.7840472,7.06540745 C55.7841115,7.88284543 57.8960774,9.17679187 59.9853797,9.64695746 C61.6745275,10.0267371 63.7312508,9.73734343 65.4451869,9.73734343 C65.2695439,9.01029141 60.1610227,10.3748023 59.9853797,9.64695746 C55.5723483,12.7399018 55.3457121,12.5440655 50.5955595,14.9234364 C48.0352789,16.2054899 44.1867132,17.6278796 42.9515461,20.7461954 C42.5499751,21.7610553 43.5648802,22.7656081 44.3595233,21.9616488 C50.4510789,15.8019245 59.105748,14.389842 65.9728242,9.57718584 C66.8389994,8.97064845 66.5054193,7.39602979 65.4451869,7.39602979 C63.4592874,7.39602979 61.3260743,7.6473662 59.3741702,7.15420769 C57.237416,6.61427048 55.1169512,5.63588206 53.0156089,4.93261582 C49.1776669,3.64976941 45.3652214,1.69537113 41.4642461,0.762968544 C40.9975172,0.651175377 40.9982255,2.31025423 41.4642461,2.45614035 C45.6718884,3.77466544 49.6500616,5.37582419 53.7840472,7.06540745 Z" id="Fill-3"></path>
                </g>
            </g>
        </g>
    </g>
</svg>