<?xml version="1.0" encoding="UTF-8"?>
<svg width="230px" height="28px" viewBox="0 0 230 28" version="1.1" xmlns="http://www.w3.org/2000/svg" xmlns:xlink="http://www.w3.org/1999/xlink">
    <!-- Generator: Sketch 50.2 (55047) - http://www.bohemiancoding.com/sketch -->
    <title>Arrow</title>
    <desc>Created with Sketch.</desc>
    <defs></defs>
    <g id="Index" stroke="none" stroke-width="1" fill="none" fill-rule="evenodd">
        <g id="Home_Loan_320" transform="translate(-17.000000, -328.000000)" fill="#4A4A4A">
            <g id="Main-Title" transform="translate(16.000000, 96.000000)">
                <g id="Arrow" transform="translate(0.000000, 216.000000)">
                    <text id="Won’t-Affect-your-Cr" font-family="BradleyHandITCTT-Bold, Bradley Hand" font-size="16" font-style="expanded" font-weight="bold" line-spacing="24">
                        <tspan x="0.392" y="35">Won’t Affect your Credit!</tspan>
                    </text>
                    <g id="Page-1" transform="translate(209.500000, 27.000000) scale(-1, 1) rotate(230.000000) translate(-209.500000, -27.000000) translate(188.000000, 12.000000)">
                        <path d="M3.89918476,23.4361053 C5.16225778,21.7576842 6.7131304,20.334 8.22044878,19.0129474 C11.2427716,16.3634737 14.549051,14.1518947 17.9437198,12.3192632 C21.2709223,10.5229474 24.8000969,8.99242105 28.3100564,7.83242105 C30.334891,7.1635452 32.4096481,7.17514412 34.4711442,7.17391304 C36.2913849,7.17282604 38.1010339,7.06196413 39.8604706,7.89294737 C40.6709212,8.27557895 40.6717752,6.89384439 39.8604706,6.52173913 C38.1005436,5.71410177 36.2936851,5.59336677 34.4711442,5.54347826 C28.8325446,5.38913257 23.043838,8.070857 18.0304013,10.7592632 C14.3564729,12.7297895 10.8845166,15.1766316 7.71316996,18.2024211 C6.13411518,19.7092632 4.50851715,21.3171579 3.25056816,23.2413684 C2.00073221,25.1534737 1.12452334,27.3903158 0.0309702607,29.4345263 C-0.097984456,29.6761053 0.20903025,29.8871579 0.342254991,29.6587368 C1.53658063,27.6082105 2.50075199,25.294 3.89918476,23.4361053 Z" id="Fill-1"></path>
                        <path d="M34.5181198,4.69015789 C35.8017432,5.23278947 37.157184,6.09173684 38.4980795,6.40384211 C39.5821594,6.65594737 40.902146,6.46384211 42.0021349,6.46384211 C41.8894087,5.98121053 38.6108056,6.887 38.4980795,6.40384211 C35.6658355,8.457 35.5203824,8.327 32.471777,9.90647368 C30.8286118,10.7575263 28.3586369,11.7017368 27.5659176,13.7717368 C27.308193,14.4454211 27.95955,15.1122632 28.4695448,14.5785789 C32.3790506,10.4896316 37.9335398,9.55226316 42.3407678,6.35752632 C42.8966713,5.95489474 42.6825825,4.90963158 42.0021349,4.90963158 C40.7276023,4.90963158 39.3585253,5.07647368 38.1058107,4.74910526 C36.734461,4.39068421 35.3735657,3.74121053 34.024943,3.27436842 C31.5617862,2.42278947 29.1149928,1.12542105 26.6113818,0.506473684 C26.3118394,0.432263158 26.312294,1.53359268 26.6113818,1.63043478 C29.311809,2.50569794 31.8649649,3.56857895 34.5181198,4.69015789 Z" id="Fill-3"></path>
                    </g>
                </g>
            </g>
        </g>
    </g>
</svg>