<svg width="66" height="61" viewBox="0 0 66 61" xmlns="http://www.w3.org/2000/svg"><title>ic_free</title><g fill="none" fill-rule="evenodd"><path d="M1-1h64v64H1z"/><g stroke="#68BA62" stroke-linecap="round" stroke-linejoin="round" stroke-width="2.954"><path d="M35.626 4.114A2.624 2.624 0 0 0 33 1.49a2.624 2.624 0 0 0-2.625 2.623" opacity=".5"/><path d="M55.318 10.67c-2.626 0-4.598 1.091-10.257-1.313-5.527-2.35-8.222-2.993-12.061 0-3.84-2.993-6.533-2.35-12.062 0-5.657 2.404-7.63 1.313-10.256 1.313-2.728 0-3.938 1.639-3.938 3.114 0 1.475.84 3.44 3.856 3.44 2.038 0 3.199-.336 6.745-1.082 2.237-.47 5.299-1.541 8.762-1.541 3.465 0 3.522 2.624 6.893 2.624s3.428-2.624 6.892-2.624c3.465 0 6.525 1.07 8.762 1.54 3.548.747 4.708 1.082 6.746 1.082 3.016 0 3.856-1.964 3.856-3.44 0-1.474-1.21-3.113-3.938-3.113zM13.308 17.225l9.19 18.362M11.995 17.225L4.118 35.587M4.118 35.587c0 4.435 4.115 8.03 9.19 8.03 5.075 0 9.19-3.595 9.19-8.03"/><path d="M37.923 48.692h4.266c.726 0 1.314.587 1.314 1.31v3.934M22.497 53.936v-3.933c0-.724.588-1.31 1.313-1.31h10.503" opacity=".5"/><path d="M34.313 53.936H21.185c-.726 0-1.314.587-1.314 1.311v3.933h26.257v-3.933c0-.724-.588-1.31-1.312-1.31h-6.893"/><path d="M30.376 44.758c0-2.51-1.315-3.232-1.315-6.556 0-3.737 1.314-6.828 1.314-17.044M35.624 44.758c0-2.51 1.315-3.232 1.315-6.556 0-3.737-1.314-6.828-1.314-17.044" opacity=".5"/><path d="M25.123 35.58H1.493" opacity=".8"/><path d="M52.692 17.225l9.19 18.362M51.38 17.225l-7.877 18.362M43.503 35.587c0 4.435 4.114 8.03 9.189 8.03 5.076 0 9.19-3.595 9.19-8.03"/><path d="M64.508 35.58H40.877" opacity=".8"/></g></g></svg>