<svg width="80" height="59" viewBox="0 0 80 59" xmlns="http://www.w3.org/2000/svg"><title>ic_social_security</title><g fill="none" fill-rule="evenodd"><path d="M8-3h64v64H8z"/><path d="M27.745 21.074H1.6M34.28 29.19H16.307M31.013 37.306H6.502" stroke="#68BA62" stroke-width="2.954" opacity=".5" stroke-linecap="round" stroke-linejoin="round"/><path d="M27.05 14.58A27.8 27.8 0 0 1 50.622 1.597C65.963 1.596 78.4 13.95 78.4 29.19c0 15.24-12.437 27.595-27.779 27.595A27.8 27.8 0 0 1 27.05 43.798" stroke="#68BA62" stroke-width="3" stroke-linecap="round" stroke-linejoin="round"/><path d="M45.953 27.567h-3.37a2.392 2.392 0 0 1-2.4-2.384v-3.348a2.393 2.393 0 0 1 2.4-2.384h3.37c1.326 0 2.4 1.068 2.4 2.384v3.348a2.391 2.391 0 0 1-2.4 2.384zM60.66 38.93h-3.371a2.392 2.392 0 0 1-2.4-2.385v-3.348a2.393 2.393 0 0 1 2.4-2.384h3.37c1.327 0 2.4 1.068 2.4 2.384v3.348a2.391 2.391 0 0 1-2.4 2.384zM45.085 40.553l13.073-22.725" stroke="#68BA62" stroke-width="3" stroke-linecap="round" stroke-linejoin="round"/></g></svg>