<svg width="66" height="55" viewBox="0 0 66 55" xmlns="http://www.w3.org/2000/svg"><title>ic_safe</title><g fill="none" fill-rule="evenodd"><path d="M1-5h64v64H1z"/><g stroke="#68BA62" stroke-linecap="round" stroke-linejoin="round" stroke-width="2.954"><path d="M60.23 43.515c1.437-.632 2.52-2.095 3.82-4.613-3.492-2.19-7.316-.887-9.8 3.786M49.268 49.604c2.463 2.517 6.12 4.224 10.729-.936-3.048-3.115-7.256-2.954-10.729.936zM61.61 33.284c1.524-1.131 2.668-3.234 2.897-6.934-4.205-.299-7.336 2.713-7.67 8.081M60.635 22.726c1.03-1.653 1.37-4.062.304-7.599-4.012 1.385-5.88 5.422-4.338 10.542M5.77 43.44c-1.437-.631-2.52-2.094-3.82-4.613 3.492-2.19 7.316-.887 9.8 3.786M16.732 49.53c-2.463 2.517-6.12 4.224-10.729-.937 3.048-3.115 7.256-2.953 10.729.936zM4.39 33.21c-1.524-1.131-2.668-3.234-2.897-6.935 4.205-.298 7.336 2.714 7.67 8.082M5.365 22.652c-1.03-1.654-1.37-4.062-.304-7.6 4.012 1.385 5.88 5.423 4.338 10.543"/><path opacity=".5" d="M23.389 41.038h-6.843V1.49h32.846v39.548h-6.843"/><path d="M39.812 36.946c0 3.766-3.064 6.819-6.844 6.819-3.778 0-6.842-3.052-6.842-6.818 0-3.766 3.064-6.819 6.842-6.819 3.78 0 6.844 3.053 6.844 6.818z"/><path d="M35.706 43.383l2.737 9.545-5.474-2.726-5.475 2.726 2.737-9.545"/><path d="M23.389 19.219h19.16M27.495 13.764h10.948" opacity=".5"/></g></g></svg>